<svg xmlns="http://www.w3.org/2000/svg">
    <symbol id="logo" viewBox="0 0 92 48">
        <path
            fill-rule="evenodd"
            clip-rule="evenodd"
            d="M48.2019 -0.092041C45.644 -0.092041 43.5514 2.00068 43.5514 4.61668C43.5514 7.17462 45.644 9.26726 48.2019 9.26726C50.8179 9.26726 52.911 7.17462 52.911 4.61668C52.911 2.00068 50.8179 -0.092041 48.2019 -0.092041ZM26.6039 40.4065C24.0217 42.8142 21.0757 44.4544 18.2575 45.4744C13.7889 47.0913 9.79098 46.9844 6.60282 45.5909C3.434 44.2058 1.26123 41.6251 0.386429 38.7126C-0.488255 35.8004 -0.0630297 32.5221 1.99791 29.9251C4.06826 27.3168 7.49879 25.7471 11.9775 25.5981C17.209 25.4243 22.4651 27.4113 27.2492 30.4918C27.3061 30.3575 27.3618 30.2212 27.416 30.0838C29.6635 24.3969 29.8865 15.7806 24.6745 3.11513L29.5315 1.1164C35.0627 14.5577 35.211 24.6509 32.3004 32.0142C31.0706 35.1269 29.043 38.1319 26.6039 40.4065ZM24.521 34.9805C22.2243 37.7313 19.3045 39.51 16.4703 40.5354C13.0251 41.7822 10.4446 41.5384 8.70634 40.7785C6.94877 40.0105 5.84728 38.6355 5.41656 37.2017C4.9858 35.7675 5.22394 34.3089 6.11182 33.1902C6.9903 32.0835 8.79413 30.959 12.152 30.8475C16.0663 30.7171 20.3456 32.2705 24.521 34.9805ZM30.1365 39.3718C30.3134 39.534 30.4899 39.6985 30.6657 39.8646C34.5947 43.5799 40.3036 46.8613 46.741 47.4513C53.3128 48.054 60.3587 45.8181 66.6405 38.9878L62.7746 35.4323C57.548 41.1156 52.0853 42.6671 47.2203 42.2212C42.2213 41.7629 37.5653 39.1604 34.2738 36.0486C33.8906 35.6862 33.5016 35.3282 33.1063 34.9759C32.4374 36.2347 31.2637 38.0626 30.1365 39.3718ZM37.0369 25.2493C37.0369 31.5516 41.6685 36.947 48.735 36.947C55.897 36.947 60.5283 31.5516 60.5283 25.2493C60.5283 18.9466 55.897 13.5513 48.735 13.5513C41.6685 13.5513 37.0369 18.9466 37.0369 25.2493ZM55.3241 25.2493C55.3241 29.0688 52.7457 32.3158 48.735 32.3158C44.8195 32.3158 42.2414 29.0688 42.2414 25.2493C42.2414 21.4295 44.8195 18.1829 48.735 18.1829C52.7457 18.1829 55.3241 21.4295 55.3241 25.2493ZM59.8268 14.1242H65.413L71.5245 28.9256L77.7316 14.1242H83.3182L73.2436 36.3741H69.7582L59.8268 14.1242ZM86.1181 14.1242H91.3226V36.3741H86.1181V14.1242Z"
            fill="#292824"
        ></path>
    </symbol>
</svg>